<?xml version="1.0" encoding="UTF-8" standalone="no"?>
<!-- Created with Inkscape (http://www.inkscape.org/) -->

<svg
   width="210mm"
   height="297mm"
   viewBox="0 0 210 297"
   version="1.1"
   id="svg1"
   inkscape:version="1.4.3 (0d15f75, 2025-12-25)"
   sodipodi:docname="test_panel.svg"
   xmlns:inkscape="http://www.inkscape.org/namespaces/inkscape"
   xmlns:sodipodi="http://sodipodi.sourceforge.net/DTD/sodipodi-0.dtd"
   xmlns="http://www.w3.org/2000/svg"
   xmlns:svg="http://www.w3.org/2000/svg">
  <sodipodi:namedview
     id="namedview1"
     pagecolor="#ffffff"
     bordercolor="#000000"
     borderopacity="0.25"
     inkscape:showpageshadow="2"
     inkscape:pageopacity="0.0"
     inkscape:pagecheckerboard="0"
     inkscape:deskcolor="#d1d1d1"
     inkscape:document-units="mm"
     inkscape:zoom="0.73512619"
     inkscape:cx="474.06827"
     inkscape:cy="433.25895"
     inkscape:window-width="1127"
     inkscape:window-height="1211"
     inkscape:window-x="333"
     inkscape:window-y="54"
     inkscape:window-maximized="0"
     inkscape:current-layer="layer1" />
  <defs
     id="defs1" />
  <g
     inkscape:label="Layer 1"
     inkscape:groupmode="layer"
     id="layer1">
    <path
       id="rect1"
       style="fill:none;stroke:#000000;stroke-width:0.967175"
       d="M 12.312737,5.1867695 H 191.03173 V 181.6153 H 12.312737 Z" />
    <path
       id="path1"
       style="fill:none;stroke:#000000;stroke-width:0.264583"
       d="M 120.93162,87.819389 A 39.770668,30.592821 0 0 1 81.16095,118.41221 39.770668,30.592821 0 0 1 41.390282,87.819389 39.770668,30.592821 0 0 1 81.16095,57.226568 39.770668,30.592821 0 0 1 120.93162,87.819389 Z" />
    <path
       id="path2"
       style="fill:none;stroke:#000000;stroke-width:0.264583"
       d="m 154.76368,142.16663 a 13.316875,17.63586 0 0 1 -13.31687,17.63586 13.316875,17.63586 0 0 1 -13.31688,-17.63586 13.316875,17.63586 0 0 1 13.31688,-17.63586 13.316875,17.63586 0 0 1 13.31687,17.63586 z" />
  </g>
</svg>
